<svg width="388" height="388" viewBox="0 0 388 388" fill="none" xmlns="http://www.w3.org/2000/svg">
<path d="M328.854 98.856C328.854 98.856 338.821 47.1248 329.546 41.5583C320.271 35.9917 300.059 73.5635 300.059 73.5635L295.076 71.7085C297.983 29.7214 295.353 25.7769 280.54 44.1036C265.727 62.4304 253.96 95.8331 250.915 101.168C247.87 106.504 244.962 126.221 217.415 103.256C189.868 80.2913 172.701 93.514 156.78 100.009C140.859 106.504 106.667 137.82 87.8389 149.882C69.0109 161.943 49.9079 156.842 45.7549 155.681C41.6019 154.52 22.3549 130.164 15.1609 143.387C7.96689 156.609 15.8529 170.76 23.7439 181.424C31.6349 192.088 51.0159 196.505 67.4889 195.574C83.9619 194.642 133.389 164.954 133.389 164.954C136.204 171.526 134.266 169.515 135.373 190.548C136.48 211.581 151.247 230.764 155.123 238.489C158.999 246.214 156.046 254.882 156.784 274.684C157.522 294.485 168.784 293.86 178.565 293.86C188.346 293.86 191.855 303.138 193.701 310.253C195.547 317.368 198.869 327.264 209.201 327.264C219.533 327.264 221.383 320.459 224.152 313.655C226.921 306.85 236.152 300.045 240.395 300.665C244.638 301.285 247.409 335.924 251.654 347.986C255.899 360.047 271.404 366.854 274.173 363.142C276.942 359.43 280.264 357.574 275.465 331.284C270.666 304.995 274.173 264.785 275.65 252.104C277.127 239.423 278.787 221.175 305.921 212.515C333.055 203.855 346.529 181.585 346.529 151.892C346.529 122.2 328.854 98.856 328.854 98.856V98.856ZM279.386 89.4991C277.774 91.8971 275.886 93.7171 273.839 94.847C271.792 95.9769 269.628 96.3929 267.481 96.0694C267.481 96.0694 275.233 69.5486 286.401 65.217C286.4 65.2187 287.231 77.823 279.386 89.4991V89.4991ZM295.03 152.918C289.321 152.918 284.693 144.32 284.693 133.715C284.693 123.11 289.321 114.512 295.03 114.512C300.739 114.512 305.366 123.11 305.366 133.715C305.366 144.32 300.738 152.918 295.03 152.918ZM311.73 82.6942C311.73 82.6942 318.89 66.8424 323.25 65.2187C323.527 74.3444 322.443 82.153 318.797 88.3429C316.622 85.8784 314.239 83.9743 311.727 82.6942H311.73ZM328.63 161.58C323.53 161.58 319.401 153.558 319.401 143.662C319.401 133.765 323.533 125.744 328.63 125.744C333.727 125.744 337.859 133.767 337.859 143.662C337.859 153.556 333.72 161.588 328.623 161.588L328.63 161.58Z" fill="#E8E8E8"/>
</svg>
