<svg width="388" height="388" viewBox="0 0 388 388" fill="none" xmlns="http://www.w3.org/2000/svg">
<g clip-path="url(#clip0_213_4)">
<path d="M321.24 68.642C321.23 46.0808 322.901 12.0397 313.09 9.72054C303.279 7.40142 288.016 54.258 288.016 54.258L283.586 55.1864C283.586 55.1864 287.186 11.5755 274.726 16.2154C262.266 20.8553 247.039 86.2767 247.039 86.2767C247.039 86.2767 241.501 93.6982 237.625 116.941C233.749 140.184 219.075 140.551 194.71 135.449C170.345 130.347 147.365 164.678 147.365 164.678C125.215 163.285 106.388 168.389 91.9912 177.667C77.5942 186.946 59.8742 217.567 36.6162 214.783C13.3582 212 2.28423 218.959 3.66923 232.413C5.05423 245.867 13.0822 248.188 26.0952 250.51C39.1082 252.833 70.9482 237.983 91.4372 218.034C104.069 206.011 118.45 200.125 132.967 201.038C130.199 241.572 139.613 236.592 138.505 276.491C137.397 316.391 147.088 354.898 162.87 376.239C178.652 397.58 184.47 386.445 185.019 373.456C185.568 360.466 169.238 327.061 168.684 314.07C168.13 301.079 177.821 311.751 178.928 314.998C180.035 318.246 195.817 343.763 208.828 349.331C221.839 354.899 216.028 322.886 211.32 303.863C206.612 284.841 214.92 266.748 230.42 262.573C245.92 258.399 253.12 272.316 250.078 289.481C247.036 306.647 245.925 331.237 258.938 329.845C271.951 328.452 293.27 276.027 294.931 244.942C296.592 213.857 299.084 196.693 310.99 190.198C322.896 183.703 344.49 163.753 344.49 126.637C344.49 89.5207 321.24 68.642 321.24 68.642V68.642ZM274.518 70.4969C272.926 80.7034 258.118 89.1705 258.118 89.1705C258.118 89.1705 259.991 52.8672 275.98 45.134C276.386 53.6666 275.891 62.2523 274.518 70.4969V70.4969ZM290.7 136.493C285.267 136.493 280.85 127.718 280.85 116.933C280.85 106.148 285.267 97.3763 290.7 97.3763C296.133 97.3763 300.55 106.148 300.55 116.933C300.55 127.718 296.132 136.493 290.7 136.493ZM312.011 62.9196C307.856 59.5582 305.511 57.7686 301.128 57.0262C301.128 57.0262 303.936 37.5567 312.473 33.3809C313.755 43.1436 313.596 53.2828 312.011 62.9196ZM323.611 131.506C318.178 131.506 313.761 122.754 313.761 111.995C313.761 101.235 318.18 92.4766 323.613 92.4766C329.046 92.4766 333.46 101.232 333.46 111.991C333.46 122.751 329.042 131.506 323.613 131.506H323.611Z" fill="#E8E8E8"/>
</g>
<defs>
<clipPath id="clip0_213_4">
<rect width="388" height="388" fill="white"/>
</clipPath>
</defs>
</svg>
