<svg width="388" height="388" viewBox="0 0 388 388" fill="none" xmlns="http://www.w3.org/2000/svg">
<path d="M327.054 204.479L328.716 197.52C363.878 190.097 375.233 151.676 373.387 126.775C371.449 100.635 355.572 77.5912 349.758 73.6484C349.758 73.6484 354.188 15.1911 344.497 15.1911C333.132 15.1911 317.641 59.7286 317.641 59.7286H313.488C313.488 59.7286 313.211 18.9027 306.288 19.3669C291.349 20.3723 275.278 89.8856 275.278 89.8856C271.678 96.3804 270.848 112.155 260.327 130.249C249.806 148.343 224.083 145.928 203.594 145.464C183.105 145 162.87 173.396 162.87 173.396C156.502 173.396 138.782 167.827 123.554 165.972C108.326 164.118 76.2092 167.365 67.6262 169.22C59.0432 171.075 7.26818 190.097 10.3142 209.119C13.3602 228.141 34.6782 216.078 60.4272 209.119C86.1762 202.16 125.769 201.696 135.183 206.8C144.597 211.904 133.798 241.131 116.632 249.027C99.4662 256.923 84.5152 286.597 77.0402 300.054C69.5652 313.512 62.6402 339.025 78.9782 340.418C95.3162 341.81 111.095 312.58 118.847 307.942C126.599 303.303 121.062 321.86 118.293 333.457C115.524 345.054 111.925 381.244 123.277 382.636C134.629 384.029 152.077 339.954 155.394 332.066C158.711 324.179 173.394 313.044 176.713 307.937C180.032 302.829 188.896 287.058 188.896 287.058C188.896 287.058 221.29 285.667 237.625 280.563C253.96 275.459 269.465 254.59 277.771 252.727C286.077 250.863 297.706 264.792 300.752 268.501C303.798 272.211 326.501 294.945 337.852 299.585C349.203 304.225 350.312 279.172 350.312 279.172C350.312 279.172 360.279 287.522 365.812 268.501C371.345 249.481 327.054 204.479 327.054 204.479V204.479ZM298.629 83.5448C296.137 89.2672 286.629 91.8964 286.629 91.8964C286.629 91.8964 293.089 59.7236 303.429 52.7696C305.182 68.5443 301.69 76.5204 298.629 83.5448ZM351.88 96.1123C357.38 96.1123 361.847 105.459 361.847 116.989C361.847 128.52 357.385 137.867 351.88 137.867C346.375 137.867 341.913 128.52 341.913 116.989C341.913 105.459 346.375 96.1257 351.88 96.1257V96.1123ZM340.866 42.1224C341.521 53.8135 338.591 66.5754 338.591 66.5754C335.705 64.8548 332.681 63.8648 329.62 63.6379C334.234 48.2503 337.483 43.6456 340.866 42.1224ZM318.748 140.765C313.248 140.765 308.781 131.417 308.781 119.887C308.781 108.356 313.243 99.0095 318.748 99.0095C324.253 99.0095 328.716 108.356 328.716 119.887C328.716 131.417 324.253 140.765 318.748 140.765Z" fill="#E8E8E8"/>
</svg>
