<svg width="388" height="388" viewBox="0 0 388 388" fill="none" xmlns="http://www.w3.org/2000/svg">
<path d="M382.705 179.101C387.135 146.625 364.705 116.005 364.705 116.005C364.705 116.005 371.35 63.8116 364.705 59.4029C353.04 51.6664 333.972 96.9831 333.972 96.9831L329.265 95.5906C334.388 41.0779 323.589 51.5206 310.3 71.461C297.011 91.4014 284.966 132.237 276.383 145.693C267.8 159.149 257.556 154.507 238.175 139.18C218.794 123.852 196.09 128.99 187.507 136.877C178.924 144.765 171.73 140.13 171.73 140.13C171.73 140.13 147.088 110.901 139.336 105.335C131.584 99.7681 110.818 83.9933 85.3458 83.065C59.8738 82.1367 38.5538 99.7664 38.5538 99.7664C28.0328 115.077 39.9388 128.067 51.2908 123.896C62.6428 119.725 89.4988 113.688 108.049 120.647C126.599 127.606 154.84 162.874 154.287 173.073C153.734 183.273 142.197 201.225 129.087 206.014C116.187 210.731 80.9118 254.727 79.8038 277.461C78.6958 300.194 94.2038 301.59 109.43 288.595C124.656 275.601 136.286 286.276 136.286 286.276C122.166 309.473 120.786 337.773 132.686 341.949C144.586 346.124 154.835 325.711 169.786 302.978C184.737 280.244 199.686 269.573 223.223 274.213C246.76 278.853 284.134 273.285 284.134 273.285C294.102 289.524 327.049 323.855 339.234 333.597C351.419 343.339 364.983 337.773 366.644 327.565C368.305 317.357 350.032 292.77 351.693 286.275C353.354 279.78 371.154 291.679 378.104 274.377C384.504 258.444 351.97 233.391 346.704 231.072C341.438 228.752 344.489 221.329 344.489 221.329C361.94 218.536 378.276 211.577 382.705 179.101V179.101ZM364.315 140.145C369.876 140.145 374.384 148.991 374.384 159.901C374.384 170.811 369.876 179.657 364.315 179.657C358.754 179.657 354.247 170.813 354.247 159.901C354.247 148.989 358.755 140.145 364.315 140.145ZM359.587 81.4413C359.587 81.4413 360.867 92.5174 354.568 107.364C351.658 105.145 348.624 103.412 345.512 102.188C345.512 102.188 353.772 82.6008 359.587 81.4413V81.4413ZM312.38 116.005C309.18 120.409 301.444 121.341 301.444 121.341C301.444 121.341 307.031 94.2685 320.528 84.8731C320.251 99.2553 318.656 107.364 312.38 116.005ZM331.946 175.501C325.931 175.501 321.056 166.104 321.056 154.512C321.056 142.92 325.931 133.523 331.946 133.523C337.961 133.523 342.836 142.92 342.836 154.512C342.836 166.104 337.96 175.501 331.946 175.501Z" fill="#E8E8E8"/>
</svg>
