<svg width="388" height="388" viewBox="0 0 388 388" fill="none" xmlns="http://www.w3.org/2000/svg">
<path d="M364.709 141.209C364.709 141.209 377.722 91.2187 369.692 87.3914C353.992 79.9096 337.348 112.23 337.348 112.23L333.33 110.744C333.33 110.744 336.745 86.0006 336.191 74.4017C335.637 62.8027 317.641 75.7925 307.396 90.1747C297.151 104.557 277.496 150.953 265.589 159.767C253.682 168.581 240.117 137.961 221.843 116.156C203.569 94.3505 177.267 111.98 177.267 111.98C172.837 109.661 166.192 89.2481 153.179 67.9102C140.166 46.5722 126.6 29.8625 96.7 21.511C66.8 13.1595 52.534 29.5357 54.2 40.2064C55.866 50.877 58.5 50.5084 92.552 55.8437C131.677 61.9733 142.666 95.2788 152.08 114.301C161.494 133.323 149.034 152.339 138.236 178.325C127.438 204.311 131.314 222.395 133.252 244.205C135.19 266.016 146.819 271.577 148.752 303.125C150.685 334.673 155.397 345.352 167.303 338.386C178.939 331.583 174.179 265.429 173.958 262.442C174.07 262.934 175.28 264.062 186.958 254.876C200.525 244.205 213.815 260.442 231.258 267.866C248.701 275.289 261.437 267.401 265.867 284.104C274.767 317.648 289.124 359.727 306.567 374.574C324.01 389.42 327.332 359.727 321.241 347.664C315.15 335.601 314.041 315.659 314.041 315.659C348.926 324.01 357.232 312.876 358.341 298.493C359.45 284.111 340.621 276.224 331.484 268.331C322.347 260.439 328.716 247.919 328.716 247.919C357.787 242.35 374.584 228.896 377.168 193.637C379.311 164.392 364.709 141.209 364.709 141.209V141.209ZM302.409 127.755C302.409 127.755 312.838 101.155 324.651 95.8971C324.651 95.8971 324.097 114.919 318.744 122.188C312.448 130.743 302.413 127.758 302.413 127.758L302.409 127.755ZM328.435 189.768C322.624 189.768 317.914 180.837 317.914 169.819C317.914 158.802 322.624 149.869 328.435 149.869C334.246 149.869 338.956 158.802 338.956 169.819C338.956 180.837 334.249 189.768 328.439 189.768H328.435ZM362.951 106.414C362.969 112.23 358.551 126.716 355.992 129.236C353.8 125.688 351.076 123.198 348.109 122.031C349.865 118.356 356.68 106.372 362.955 106.414H362.951ZM360.094 199.644C355.01 199.644 350.888 191.412 350.888 181.255C350.888 171.099 355.01 162.868 360.094 162.868C365.178 162.868 369.301 171.101 369.301 181.255C369.301 191.41 365.179 199.644 360.094 199.644Z" fill="#E8E8E8"/>
</svg>
