<svg width="388" height="388" viewBox="0 0 388 388" fill="none" xmlns="http://www.w3.org/2000/svg">
<g clip-path="url(#clip0_213_2)">
<path d="M218.504 16.9448V-0.676636H258.664V17.3246L233.746 64.3378H259.546V82.1076H216.734V65.2491L241.906 16.9448H218.504ZM269.042 107.913V96.1343H299.617V108.17L280.646 139.603H300.291V151.486H267.691V140.213L286.859 107.916L269.042 107.913ZM365.652 241.411C365.652 241.411 377.404 208.256 374.783 185.907C372.941 170.197 343.392 216.212 343.392 216.212L337.3 213.674C337.3 213.674 345.333 166.286 337.683 163.167C330.033 160.048 308.232 188.11 296.375 213.674C296.375 213.674 275.721 222.019 267.307 264.924C258.893 307.829 221.792 217.415 208.787 203.074C195.782 188.733 180.102 159.427 138.411 180.627C96.72 201.827 83.722 237.666 83.717 267.925C83.717 292.868 86.394 304.091 82.187 314.691C82.187 314.691 34.76 306.585 38.587 243.612C42.414 180.638 70.716 190.611 75.305 189.988C79.894 189.365 89.457 181.882 87.545 163.175C85.633 144.468 68.035 135.735 54.266 144.465C40.497 153.195 10.666 175.642 10.666 244.854C10.666 314.066 36.292 345.827 79.895 367.067C123.498 388.308 184.309 388.302 203.429 388.302C222.549 388.302 328.882 392.002 336.149 378.908C336.149 378.908 377.4 358.236 377.4 306.611C377.404 265.465 373.809 256.054 365.652 241.416V241.411ZM326.829 208.26C326.829 208.26 320.914 204.885 312.042 208.26C312.042 208.26 322.984 189.456 326.829 189.456C330.674 189.456 326.829 208.26 326.829 208.26ZM358.537 232.039C356.763 228.181 352.214 224.623 352.214 224.623C352.214 224.623 360.989 212.893 361.58 216.269C362.171 219.645 358.538 232.039 358.538 232.039H358.537Z" fill="#E8E8E8"/>
</g>
<defs>
<clipPath id="clip0_213_2">
<rect width="388" height="388" fill="white"/>
</clipPath>
</defs>
</svg>
